<svg xmlns="http://www.w3.org/2000/svg" version="1.1" xmlns:xlink="http://www.w3.org/1999/xlink" width="1000" height="1000"><metadata><rdf:RDF xmlns:rdf="http://www.w3.org/1999/02/22-rdf-syntax-ns#" xmlns:dc="http://purl.org/dc/elements/1.1/"><rdf:Description><dc:creator>RealFaviconGenerator</dc:creator><dc:source>https://realfavicongenerator.net</dc:source></rdf:Description></rdf:RDF></metadata><style>
    #light-icon {
      display: inline;
    }
    #dark-icon {
      display: none;
    }

    @media (prefers-color-scheme: dark) {
      #light-icon {
        display: none;
      }
      #dark-icon {
        display: inline;
      }
    }
  </style><g id="light-icon"><svg xmlns="http://www.w3.org/2000/svg" version="1.1" xmlns:xlink="http://www.w3.org/1999/xlink" width="1000" height="1000"><g><g transform="matrix(2.638522427440633,0,0,2.638522427440633,91.02902374670185,0)"><svg xmlns="http://www.w3.org/2000/svg" width="310" height="379" viewBox="0 0 310 379" fill="none"><path d="M172.592 379H221.606C270.191 379 309.578 339.605 309.578 291.009V135.768H260.565C211.979 135.768 172.592 175.161 172.592 223.759V379Z" fill="#E47125"></path><path d="M148.332 306.721H95.259C42.6501 306.721 0 264.065 0 211.443V0H53.0731C105.685 0 148.332 42.6561 148.332 95.2785V306.721Z" fill="#3A5E2E"></path><path d="M291 75C291 102.614 268.614 125 240.999 125C213.386 125 191 102.614 191 75C191 47.3858 213.386 25 240.999 25C268.614 25 291 47.3858 291 75Z" fill="#3A5E2E"></path></svg></g></g></svg></g><g id="dark-icon"><svg xmlns="http://www.w3.org/2000/svg" version="1.1" xmlns:xlink="http://www.w3.org/1999/xlink" width="1000" height="1000"><g><g transform="matrix(2.638522427440633,0,0,2.638522427440633,91.02902374670185,0)"><svg xmlns="http://www.w3.org/2000/svg" width="310" height="379" viewBox="0 0 310 379" fill="none"><path d="M172.592 379H221.606C270.191 379 309.578 339.605 309.578 291.009V135.768H260.565C211.979 135.768 172.592 175.161 172.592 223.759V379Z" fill="white"></path><path d="M148.332 306.721H95.259C42.6501 306.721 0 264.065 0 211.443V0H53.0731C105.685 0 148.332 42.6561 148.332 95.2785V306.721Z" fill="white"></path><path d="M291 75C291 102.614 268.614 125 240.999 125C213.386 125 191 102.614 191 75C191 47.3858 213.386 25 240.999 25C268.614 25 291 47.3858 291 75Z" fill="white"></path></svg></g></g></svg></g></svg>